<?xml version="1.0" encoding="UTF-8" standalone="no"?>
<!-- Created with Inkscape (http://www.inkscape.org/) -->

<svg
   xmlns:dc="http://purl.org/dc/elements/1.1/"
   xmlns:cc="http://creativecommons.org/ns#"
   xmlns:rdf="http://www.w3.org/1999/02/22-rdf-syntax-ns#"
   xmlns:svg="http://www.w3.org/2000/svg"
   xmlns="http://www.w3.org/2000/svg"
   xmlns:xlink="http://www.w3.org/1999/xlink"
   xmlns:sodipodi="http://sodipodi.sourceforge.net/DTD/sodipodi-0.dtd"
   xmlns:inkscape="http://www.inkscape.org/namespaces/inkscape"
   width="210mm"
   height="297mm"
   viewBox="0 0 210 297"
   version="1.1"
   id="svg8"
   inkscape:version="0.92.1 r15371"
   sodipodi:docname="dibujo.svg">
  <defs
     id="defs2" />
  <sodipodi:namedview
     id="base"
     pagecolor="#ffffff"
     bordercolor="#666666"
     borderopacity="1.0"
     inkscape:pageopacity="0.0"
     inkscape:pageshadow="2"
     inkscape:zoom="1.979899"
     inkscape:cx="389.27629"
     inkscape:cy="517.0448"
     inkscape:document-units="mm"
     inkscape:current-layer="layer1"
     showgrid="false"
     inkscape:snap-global="false"
     inkscape:window-width="2560"
     inkscape:window-height="1377"
     inkscape:window-x="1912"
     inkscape:window-y="-8"
     inkscape:window-maximized="1" />
  <metadata
     id="metadata5">
    <rdf:RDF>
      <cc:Work
         rdf:about="">
        <dc:format>image/svg+xml</dc:format>
        <dc:type
           rdf:resource="http://purl.org/dc/dcmitype/StillImage" />
        <dc:title></dc:title>
      </cc:Work>
    </rdf:RDF>
  </metadata>
  <g
     inkscape:label="Capa 1"
     inkscape:groupmode="layer"
     id="layer1">
    <text
       xml:space="preserve"
       style="font-style:normal;font-weight:normal;font-size:10.58333302px;line-height:1.25;font-family:sans-serif;letter-spacing:0px;word-spacing:0px;fill:#000000;fill-opacity:1;stroke:none;stroke-width:0.26458332"
       x="18.142857"
       y="33.172619"
       id="text3682"><tspan
         sodipodi:role="line"
         id="tspan3680"
         x="18.142857"
         y="42.828114"
         style="stroke-width:0.26458332" /></text>
    <flowRoot
       xml:space="preserve"
       id="flowRoot4583"
       style="fill:black;fill-opacity:1;stroke:none;font-family:sans-serif;font-style:normal;font-weight:normal;font-size:53.33333333px;line-height:1.25;letter-spacing:0px;word-spacing:0px"><flowRegion
         id="flowRegion4585"><rect
           id="rect4587"
           width="227.85715"
           height="75"
           x="151.42857"
           y="211.8054" /></flowRegion><flowPara
         id="flowPara4589"></flowPara></flowRoot>    <path
       style="fill:none;stroke:#000000;stroke-width:0.97745764;stroke-miterlimit:4;stroke-dasharray:none;stroke-opacity:1"
       d="m 100.94376,146.97381 a 28.468128,27.432556 83.838453 0 1 -0.008,-2.03982 28.468128,27.432556 83.838453 0 1 0.82274,-6.19755 28.468128,27.432556 83.838453 0 1 26.07452,-21.12539 v 0 a 28.468128,27.432556 83.838453 0 1 7.35837,0.95871 28.468128,27.432556 83.838453 0 1 20.48556,25.75006 28.468128,27.432556 83.838453 0 0 0.0716,1.76293"
       id="path4858"
       inkscape:connector-curvature="0" />
    <text
       xml:space="preserve"
       style="font-style:normal;font-weight:normal;font-size:16.93333244px;line-height:1.25;font-family:sans-serif;letter-spacing:0px;word-spacing:0px;fill:#000000;fill-opacity:1;stroke:none;stroke-width:0.26458332"
       x="99.424271"
       y="67.54911"
       id="text4805"><tspan
         sodipodi:role="line"
         id="tspan4803"
         x="99.424271"
         y="82.997902"
         style="stroke-width:0.26458332"></tspan></text>
    <g
       aria-label="baizabal"
       style="font-style:normal;font-weight:normal;font-size:16.93333244px;line-height:1.25;font-family:sans-serif;letter-spacing:0px;word-spacing:0px;fill:#41a900;fill-opacity:1;stroke:none;stroke-width:0.26458332"
       id="text4809"
       transform="translate(66.149208,28.731474)">
      <path
         d="m 48.362589,133.14705 q -0.601194,0.90346 -1.34028,1.45445 -0.732633,0.55529 -1.491365,0.75803 -0.797427,0.20491 -1.517724,0.098 -0.716004,-0.11333 -1.374237,-0.55134 -0.613061,-0.40796 -0.972475,-0.86127 -0.363709,-0.44687 -0.645803,-0.98839 l -0.30074,0.28404 -1.135775,-0.75579 6.681844,-10.04129 1.213214,0.80732 -2.3876,3.58802 q 0.788934,-0.0802 1.539339,0.0374 0.7547,0.11115 1.471012,0.58781 1.277748,0.85026 1.360695,2.3207 0.0894,1.47473 -1.100105,3.26229 z m -1.273405,-0.80082 q 0.858849,-1.29065 0.87524,-2.23876 0.02069,-0.95456 -0.927945,-1.58581 -0.529168,-0.35213 -1.225835,-0.48053 -0.692373,-0.13485 -1.397486,-0.0827 l -2.748316,4.13009 q 0.361668,0.57585 0.669385,0.91097 0.31417,0.33941 0.785259,0.65289 1.00671,0.66991 2.01261,0.38957 1.016648,-0.2825 1.957088,-1.69577 z"
         style="font-size:15.875px;stroke-width:0.26458332;fill:#41a900;fill-opacity:1"
         id="path4834"
         inkscape:connector-curvature="0" />
      <path
         d="m 54.437131,139.83426 -1.376646,-0.45383 0.288804,-0.87605 q -0.225302,0.0645 -0.617091,0.18833 -0.382001,0.11893 -0.720155,0.15436 -0.401821,0.0553 -0.887291,0.0176 -0.487898,-0.0302 -1.091561,-0.22926 -1.111623,-0.36647 -1.641914,-1.35747 -0.530291,-0.991 -0.154119,-2.13207 0.308219,-0.93494 0.895052,-1.3781 0.596623,-0.4481 1.44937,-0.53426 0.86011,-0.0837 1.95167,0.14553 1.09156,0.22926 2.318301,0.56838 l 0.07038,-0.21349 q 0.155322,-0.47115 0.08793,-0.83616 -0.06003,-0.36259 -0.310975,-0.6412 -0.238651,-0.2664 -0.631493,-0.4612 -0.392842,-0.1948 -0.841909,-0.34284 -0.544769,-0.17959 -1.263226,-0.25321 -0.71603,-0.081 -1.519915,-0.044 l -0.07362,-0.0243 0.463542,-1.40609 q 0.4413,0.0231 1.250605,0.14294 0.809306,0.11989 1.552843,0.365 0.868685,0.28638 1.460619,0.64476 0.601722,0.35344 0.958808,0.85476 0.352152,0.49154 0.417924,1.10904 0.06577,0.61749 -0.196334,1.41256 z m -0.709243,-2.47831 0.754771,-2.2895 q -0.645244,-0.17191 -1.530837,-0.38224 -0.878232,-0.20791 -1.424942,-0.23306 -0.65212,-0.0273 -1.139126,0.21211 -0.48458,0.23202 -0.690868,0.85777 -0.232984,0.70673 0.07508,1.20822 0.310489,0.49412 1.186537,0.78292 0.728812,0.24027 1.424698,0.15953 0.698313,-0.0881 1.344689,-0.31575 z"
         style="font-size:15.875px;stroke-width:0.26458332;fill:#41a900;fill-opacity:1"
         id="path4836"
         inkscape:connector-curvature="0" />
      <path
         d="m 60.077055,130.37684 -1.630293,-0.20644 0.189881,-1.49956 1.630293,0.20643 z m -1.362053,10.01615 -1.445731,-0.18307 1.08768,-8.58979 1.445731,0.18306 z"
         style="font-size:15.875px;stroke-width:0.26458332;fill:#41a900;fill-opacity:1"
         id="path4838"
         inkscape:connector-curvature="0" />
      <path
         d="m 67.819523,140.36089 -6.983017,0.35076 -0.05405,-1.07609 4.720587,-6.6091 -4.931465,0.24771 -0.06105,-1.21544 6.743024,-0.33871 0.05211,1.03739 -4.742646,6.63348 5.194684,-0.26093 z"
         style="font-size:15.875px;stroke-width:0.26458332;fill:#41a900;fill-opacity:1"
         id="path4840"
         inkscape:connector-curvature="0" />
      <path
         d="m 76.299844,137.97182 -1.383837,0.43141 -0.274535,-0.88062 q -0.145785,0.18348 -0.392476,0.51208 -0.241598,0.31891 -0.496079,0.54439 -0.294748,0.27863 -0.711555,0.53036 -0.414499,0.25914 -1.021315,0.44831 -1.11743,0.34836 -2.125152,-0.14942 -1.007722,-0.49778 -1.365309,-1.64482 -0.292991,-0.93982 -0.07333,-1.64161 0.224756,-0.71151 0.86836,-1.27752 0.651004,-0.56833 1.67232,-1.01663 1.021316,-0.44831 2.216491,-0.88586 l -0.0669,-0.21461 q -0.147649,-0.47361 -0.414748,-0.73136 -0.259699,-0.26005 -0.625876,-0.34076 -0.349069,-0.0779 -0.781936,-0.008 -0.432867,0.07 -0.884279,0.21072 -0.547614,0.17072 -1.174892,0.52866 -0.629584,0.35054 -1.262044,0.84813 l -0.074,0.0231 -0.44064,-1.41344 q 0.372406,-0.23789 1.1005,-0.61102 0.728094,-0.37313 1.475513,-0.60614 0.873223,-0.27223 1.563181,-0.32494 0.69505,-0.0624 1.277092,0.13775 0.572335,0.19507 0.984954,0.65915 0.412619,0.46408 0.661776,1.2633 z m -2.018266,-1.60364 -0.717482,-2.30146 q -0.624882,0.2354 -1.467635,0.57932 -0.835352,0.34162 -1.294732,0.6391 -0.546354,0.35707 -0.80332,0.83503 -0.259273,0.47056 -0.06318,1.09958 0.221474,0.71042 0.763729,0.93922 0.539948,0.2214 1.420571,-0.0531 0.732619,-0.22839 1.251769,-0.69878 0.516842,-0.47778 0.910277,-1.03888 z"
         style="font-size:15.875px;stroke-width:0.26458332;fill:#41a900;fill-opacity:1"
         id="path4842"
         inkscape:connector-curvature="0" />
      <path
         d="m 82.846251,128.9131 q 0.595993,0.90689 0.813675,1.80269 0.22416,0.89155 0.113684,1.66909 -0.123615,0.814 -0.503947,1.43497 -0.384589,0.61449 -1.045328,1.04871 -0.615394,0.40443 -1.173234,0.55769 -0.553582,0.15974 -1.162322,0.20732 l 0.143635,0.38794 -1.140099,0.74925 -6.624045,-10.07951 1.217833,-0.80034 2.366947,3.60168 q 0.235037,-0.75737 0.637023,-1.40184 0.397729,-0.65096 1.116769,-1.12349 1.282611,-0.84291 2.668163,-0.34359 1.392029,0.49507 2.571246,2.28943 z m -1.235415,0.85826 q -0.851419,-1.29556 -1.717437,-1.68181 -0.870276,-0.39273 -1.822517,0.23307 -0.531182,0.34908 -0.922065,0.93988 -0.395139,0.58432 -0.623146,1.25359 l 2.724543,4.14581 q 0.671482,-0.10737 1.100318,-0.25933 0.435314,-0.15622 0.908196,-0.46699 1.010542,-0.66411 1.146367,-1.69947 0.138046,-1.0461 -0.794259,-2.46475 z"
         style="font-size:15.875px;stroke-width:0.26458332;fill:#41a900;fill-opacity:1"
         id="path4844"
         inkscape:connector-curvature="0" />
      <path
         d="m 91.310043,125.87429 -0.945172,1.09899 -0.699354,-0.60147 q -0.02645,0.23284 -0.06161,0.64224 -0.03598,0.39846 -0.132368,0.72452 -0.102387,0.39246 -0.322552,0.82677 -0.214287,0.43937 -0.628748,0.92127 -0.763214,0.88742 -1.881618,0.99906 -1.118405,0.11163 -2.029328,-0.6718 -0.74637,-0.64191 -0.931833,-1.3535 -0.186285,-0.72253 0.05975,-1.54355 0.251087,-0.82689 0.879835,-1.74816 0.628748,-0.92127 1.410654,-1.92553 l -0.170431,-0.14657 q -0.376123,-0.32348 -0.739205,-0.4006 -0.358028,-0.083 -0.711359,0.0425 -0.337345,0.11883 -0.667407,0.4075 -0.330062,0.28867 -0.63838,0.64717 -0.374025,0.43489 -0.716437,1.07078 -0.348289,0.63083 -0.621119,1.38791 l -0.05054,0.0588 -1.122493,-0.96539 q 0.189838,-0.39905 0.609711,-1.10123 0.419873,-0.70218 0.930367,-1.29575 0.596419,-0.69348 1.15369,-1.10368 0.556448,-0.42114 1.156145,-0.55971 0.588766,-0.13774 1.184577,0.0373 0.595811,0.17504 1.230519,0.72091 z m -2.561327,-0.29097 -1.827724,-1.57192 q -0.405294,0.53069 -0.937889,1.26883 -0.527541,0.73227 -0.759578,1.22794 -0.274237,0.59228 -0.238988,1.13379 0.02937,0.53646 0.528912,0.96608 0.564185,0.48522 1.145309,0.39203 0.575248,-0.0983 1.176721,-0.79761 0.500385,-0.58181 0.691523,-1.25579 0.18526,-0.67903 0.221714,-1.36335 z"
         style="font-size:15.875px;stroke-width:0.26458332;fill:#41a900;fill-opacity:1"
         id="path4846"
         inkscape:connector-curvature="0" />
      <path
         d="m 93.440635,122.12171 -0.713449,1.27069 -10.516952,-5.90493 0.713449,-1.27068 z"
         style="font-size:15.875px;stroke-width:0.26458332;fill:#41a900;fill-opacity:1"
         id="path4848"
         inkscape:connector-curvature="0" />
    </g>
    <text
       xml:space="preserve"
       style="font-style:normal;font-weight:normal;font-size:15.875px;line-height:1.25;font-family:sans-serif;letter-spacing:0px;word-spacing:0px;fill:#41a900;fill-opacity:1;stroke:none;stroke-width:0.26458332;"
       x="172.85919"
       y="68.840721"
       id="text4853"
       transform="rotate(35.816337)"><tspan
         sodipodi:role="line"
         id="tspan4851"
         x="172.85919"
         y="68.840721"
         style="stroke-width:0.26458332;fill:#41a900;fill-opacity:1;">I</tspan></text>
    <text
       xml:space="preserve"
       style="font-style:normal;font-weight:normal;font-size:15.875px;line-height:1.25;font-family:sans-serif;letter-spacing:0px;word-spacing:0px;fill:#41a900;fill-opacity:1;stroke:none;stroke-width:0.26458332;"
       id="text4862"
       transform="translate(-60.536548,17.907058)"><textPath
         xlink:href="#path4858"
         id="textPath4864">   <tspan
   style="font-size:17.63888931px;fill:#41a900;fill-opacity:1;"
   id="tspan4872">Optica</tspan></textPath></text>
    <path
       style="fill:none;stroke:#000000;stroke-width:0.99230874;stroke-miterlimit:4;stroke-dasharray:none;stroke-opacity:1"
       d="m 96.152539,147.20446 a 28.725072,28.019591 80.692806 0 1 0.0057,2.05777 28.725072,28.019591 80.692806 0 1 -0.846535,6.25117 28.725072,28.019591 80.692806 0 1 -26.659064,21.2836 v 0 a 28.725072,28.019591 80.692806 0 1 -7.516636,-0.97491 28.725072,28.019591 80.692806 0 1 -20.903865,-25.99807 28.725072,28.019591 80.692806 0 0 -0.07148,-1.7785"
       id="path4858-3"
       inkscape:connector-curvature="0" />
    <path
       style="fill:none;stroke:#000000;stroke-width:1.12682462;stroke-linecap:butt;stroke-linejoin:miter;stroke-miterlimit:4;stroke-dasharray:none;stroke-opacity:1"
       d="m 95.659027,147.54254 5.768903,-0.0521"
       id="path4902"
       inkscape:connector-curvature="0" />
  </g>
</svg>
