<?xml version="1.0" encoding="utf-8"?>
<!-- Generator: Adobe Illustrator 25.2.3, SVG Export Plug-In . SVG Version: 6.00 Build 0)  -->
<svg version="1.1"
	 id="svg8" inkscape:version="0.92.1 r15371" xmlns:cc="http://creativecommons.org/ns#" xmlns:dc="http://purl.org/dc/elements/1.1/" xmlns:inkscape="http://www.inkscape.org/namespaces/inkscape" xmlns:rdf="http://www.w3.org/1999/02/22-rdf-syntax-ns#" xmlns:sodipodi="http://sodipodi.sourceforge.net/DTD/sodipodi-0.dtd" xmlns:svg="http://www.w3.org/2000/svg"
	 xmlns="http://www.w3.org/2000/svg" xmlns:xlink="http://www.w3.org/1999/xlink" x="0px" y="0px" viewBox="0 0 595.3 841.9"
	 style="enable-background:new 0 0 595.3 841.9;" xml:space="preserve">
<style type="text/css">
	.st0{fill:none;stroke:#000000;stroke-width:2.7707;stroke-miterlimit:11.3386;}
	.st1{fill:#41A900;}
	.st2{fill:none;stroke:#000000;stroke-width:2.8128;stroke-miterlimit:11.3386;}
	.st3{fill:none;stroke:#000000;stroke-width:3.1941;stroke-miterlimit:11.3386;}
	.st4{font-family:'MyriadPro-Regular';}
	.st5{font-size:12px;}
	.st6{clip-path:url(#SVGID_3_);fill:url(#SVGID_4_);stroke:#000000;stroke-width:0.5;stroke-miterlimit:10;}
	.st7{clip-path:url(#SVGID_3_);fill:url(#SVGID_5_);stroke:#000000;stroke-width:0.5;stroke-miterlimit:10;}
	.st8{clip-path:url(#SVGID_8_);fill:url(#SVGID_9_);stroke:#000000;stroke-width:0.5;stroke-miterlimit:10;}
	.st9{clip-path:url(#SVGID_8_);fill:url(#SVGID_10_);stroke:#000000;stroke-width:0.5;stroke-miterlimit:10;}
	.st10{clip-path:url(#SVGID_13_);fill:url(#SVGID_14_);stroke:#000000;stroke-width:0.5;stroke-miterlimit:10;}
	.st11{clip-path:url(#SVGID_17_);fill:url(#SVGID_18_);stroke:#000000;stroke-width:0.5;stroke-miterlimit:10;}
	.st12{clip-path:url(#SVGID_17_);fill:url(#SVGID_19_);stroke:#000000;stroke-width:0.5;stroke-miterlimit:10;}
	.st13{clip-path:url(#SVGID_22_);fill:url(#SVGID_23_);stroke:#000000;stroke-width:0.5;stroke-miterlimit:10;}
	.st14{clip-path:url(#SVGID_26_);fill:url(#SVGID_27_);stroke:#000000;stroke-width:0.5;stroke-miterlimit:10;}
	.st15{clip-path:url(#SVGID_26_);fill:url(#SVGID_28_);stroke:#000000;stroke-width:0.5;stroke-miterlimit:10;}
	.st16{font-family:'CenturyGothic';}
	.st17{font-size:38px;}
</style>
<sodipodi:namedview  bordercolor="#666666" borderopacity="1.0" id="base" inkscape:current-layer="layer1" inkscape:cx="389.27629" inkscape:cy="517.0448" inkscape:document-units="mm" inkscape:pageopacity="0.0" inkscape:pageshadow="2" inkscape:snap-global="false" inkscape:window-height="1377" inkscape:window-maximized="1" inkscape:window-width="2560" inkscape:window-x="1912" inkscape:window-y="-8" inkscape:zoom="1.979899" pagecolor="#ffffff" showgrid="false">
	</sodipodi:namedview>
<g id="layer1" inkscape:groupmode="layer" inkscape:label="Capa 1">
	<path id="path4858" inkscape:connector-curvature="0" class="st0" d="M286.1,414.6c-0.1-1.9-0.1-3.9,0-5.8
		c0.2-5.9,0.9-11.8,2.3-17.6c8.7-35,39-59.5,73.9-59.9l0,0c7-0.1,14,0.8,20.9,2.7c32.4,9,55.8,38.4,58.1,73c0,1.7,0.1,3.3,0.2,5"/>
	<g id="text4809" transform="translate(66.149208,28.731474)">
		<path id="path4834" inkscape:connector-curvature="0" class="st1" d="M258.5,428.1c-1.1,1.7-2.4,3.1-3.8,4.1
			c-1.4,1-2.8,1.8-4.2,2.1c-1.5,0.4-2.9,0.5-4.3,0.3c-1.4-0.2-2.7-0.7-3.9-1.6c-1.2-0.8-2.1-1.6-2.8-2.4c-0.7-0.8-1.3-1.8-1.8-2.8
			l-0.9,0.8l-3.2-2.1l18.9-28.5l3.4,2.3l-6.8,10.2c1.5-0.2,2.9-0.1,4.4,0.1c1.4,0.2,2.8,0.8,4.2,1.7c2.4,1.6,3.7,3.8,3.9,6.6
			C261.7,421.7,260.7,424.8,258.5,428.1L258.5,428.1z M254.8,425.9c1.6-2.4,2.5-4.6,2.5-6.3c0-1.8-0.8-3.3-2.6-4.5
			c-1-0.7-2.2-1.1-3.5-1.4c-1.3-0.3-2.6-0.3-4-0.2l-7.8,11.7c0.7,1.1,1.3,1.9,1.9,2.6c0.6,0.6,1.3,1.3,2.2,1.9
			c1.9,1.3,3.8,1.6,5.7,1.1C251.2,430.1,253.1,428.5,254.8,425.9L254.8,425.9z"/>
		<path id="path4836" inkscape:connector-curvature="0" class="st1" d="M275.7,447.1l-3.9-1.3l0.8-2.5c-0.4,0.1-1,0.3-1.7,0.5
			c-0.7,0.2-1.4,0.4-2,0.4c-0.8,0.1-1.6,0.1-2.5,0c-0.9-0.1-2-0.3-3.1-0.6c-2.1-0.7-3.7-2-4.7-3.8s-1.1-3.9-0.4-6
			c0.6-1.8,1.4-3.1,2.5-3.9c1.1-0.8,2.5-1.4,4.1-1.5c1.6-0.2,3.5,0,5.5,0.4c2.1,0.4,4.3,1,6.6,1.6l0.2-0.6c0.3-0.9,0.4-1.7,0.2-2.4
			c-0.1-0.7-0.4-1.3-0.9-1.8c-0.5-0.5-1-0.9-1.8-1.3c-0.7-0.4-1.5-0.7-2.4-1c-1-0.3-2.2-0.6-3.6-0.7c-1.4-0.2-2.8-0.2-4.3-0.1
			l-0.2-0.1l1.3-4c0.8,0,2,0.2,3.5,0.4c1.5,0.2,3,0.6,4.4,1c1.6,0.5,3,1.2,4.1,1.8c1.1,0.7,2,1.5,2.7,2.4c0.7,0.9,1.1,2,1.2,3.1
			c0.1,1.2-0.1,2.5-0.6,4L275.7,447.1z M273.7,440.1l2.1-6.5c-1.2-0.3-2.7-0.7-4.3-1.1c-1.7-0.4-3-0.6-4-0.7
			c-1.2-0.1-2.3,0.1-3.2,0.6c-0.9,0.4-1.6,1.2-2,2.4c-0.4,1.3-0.4,2.5,0.2,3.4c0.6,0.9,1.7,1.7,3.4,2.2c1.4,0.5,2.7,0.6,4,0.5
			C271.2,440.8,272.4,440.5,273.7,440.1L273.7,440.1z"/>
		<path id="path4838" inkscape:connector-curvature="0" class="st1" d="M291.7,420.3l-4.6-0.6l0.5-4.3l4.6,0.6L291.7,420.3z
			 M287.8,448.7l-4.1-0.5l3.1-24.3l4.1,0.5L287.8,448.7z"/>
		<path id="path4840" inkscape:connector-curvature="0" class="st1" d="M313.6,448.6l-19.8,1l-0.2-3.1l13.4-18.7l-14,0.7l-0.2-3.4
			l19.1-1l0.1,2.9l-13.4,18.8l14.7-0.7L313.6,448.6z"/>
		<path id="path4842" inkscape:connector-curvature="0" class="st1" d="M337.6,441.8l-3.9,1.2l-0.8-2.5c-0.3,0.3-0.6,0.8-1.1,1.5
			c-0.5,0.6-0.9,1.1-1.4,1.5c-0.6,0.5-1.2,1-2,1.5c-0.8,0.5-1.7,0.9-2.9,1.3c-2.1,0.7-4.1,0.5-6-0.4c-1.9-0.9-3.2-2.5-3.9-4.7
			c-0.6-1.8-0.6-3.3-0.2-4.7c0.4-1.3,1.2-2.6,2.5-3.6c1.2-1.1,2.8-2,4.7-2.9c1.9-0.8,4-1.7,6.3-2.5l-0.2-0.6
			c-0.3-0.9-0.7-1.6-1.2-2.1c-0.5-0.5-1.1-0.8-1.8-1c-0.7-0.1-1.4-0.2-2.2,0c-0.8,0.1-1.7,0.3-2.5,0.6c-1,0.3-2.1,0.8-3.3,1.5
			c-1.2,0.7-2.4,1.5-3.6,2.4l-0.2,0.1l-1.2-4c0.7-0.4,1.7-1,3.1-1.7c1.4-0.7,2.8-1.3,4.2-1.7c1.7-0.5,3.1-0.8,4.4-0.9
			c1.3-0.1,2.5,0,3.6,0.4c1.1,0.4,2,1,2.8,1.9c0.8,0.9,1.4,2.1,1.9,3.6L337.6,441.8z M331.9,437.3l-2-6.5c-1.2,0.4-2.6,1-4.2,1.6
			c-1.6,0.6-2.8,1.2-3.7,1.8c-1,0.7-1.8,1.5-2.3,2.4c-0.5,0.9-0.5,1.9-0.2,3.1c0.4,1.3,1.1,2.2,2.2,2.7c1,0.4,2.4,0.4,4-0.2
			c1.4-0.4,2.6-1.1,3.5-2C330.3,439.3,331.2,438.3,331.9,437.3L331.9,437.3z"/>
		<path id="path4844" inkscape:connector-curvature="0" class="st1" d="M356.2,416.1c1.1,1.7,1.9,3.4,2.3,5.1
			c0.4,1.7,0.5,3.3,0.3,4.7c-0.2,1.5-0.7,2.9-1.4,4.1c-0.7,1.2-1.7,2.2-3,3c-1.2,0.8-2.3,1.3-3.3,1.6c-1,0.3-2.1,0.5-3.3,0.6
			l0.4,1.1l-3.2,2.1l-18.8-28.6l3.5-2.3l6.7,10.2c0.4-1.4,1-2.8,1.8-4c0.8-1.2,1.8-2.3,3.2-3.2c2.4-1.6,4.9-1.9,7.6-1
			C351.5,410.6,354,412.7,356.2,416.1z M352.7,418.6c-1.6-2.4-3.2-4-4.9-4.8c-1.6-0.7-3.4-0.5-5.2,0.7c-1,0.7-1.9,1.5-2.6,2.7
			c-0.7,1.1-1.3,2.3-1.8,3.6l7.7,11.8c1.3-0.2,2.3-0.4,3.1-0.7c0.8-0.3,1.7-0.7,2.6-1.3c1.9-1.3,3-2.9,3.2-4.8
			C355.2,423.6,354.5,421.2,352.7,418.6z"/>
		<path id="path4846" inkscape:connector-curvature="0" class="st1" d="M380.2,407.5l-2.7,3.1l-2-1.7c0,0.4-0.1,1-0.2,1.8
			c-0.1,0.8-0.2,1.4-0.4,2.1c-0.2,0.7-0.5,1.5-0.9,2.3c-0.4,0.8-1,1.7-1.8,2.6c-1.4,1.7-3.2,2.6-5.3,2.8s-4-0.4-5.8-1.9
			c-1.4-1.2-2.3-2.5-2.6-3.8c-0.4-1.4-0.3-2.8,0.2-4.4c0.5-1.6,1.3-3.2,2.5-5c1.2-1.7,2.5-3.6,4-5.5l-0.5-0.4
			c-0.7-0.6-1.4-1-2.1-1.1c-0.7-0.2-1.3-0.1-2,0.1c-0.6,0.2-1.3,0.6-1.9,1.2c-0.6,0.5-1.2,1.2-1.8,1.8c-0.7,0.8-1.4,1.8-2,3
			c-0.7,1.2-1.2,2.5-1.8,3.9l-0.1,0.2l-3.2-2.7c0.4-0.8,0.9-1.8,1.7-3.1c0.8-1.3,1.7-2.6,2.6-3.7c1.1-1.3,2.2-2.4,3.3-3.1
			c1.1-0.8,2.1-1.3,3.3-1.6c1.1-0.3,2.2-0.2,3.4,0.1c1.1,0.3,2.3,1,3.5,2L380.2,407.5z M372.9,406.7l-5.2-4.5
			c-0.8,1-1.7,2.2-2.7,3.6c-1,1.4-1.7,2.5-2.2,3.5c-0.5,1.1-0.7,2.2-0.7,3.2c0.1,1,0.6,1.9,1.5,2.7c1.1,0.9,2.1,1.3,3.2,1.1
			c1.1-0.2,2.2-0.9,3.3-2.3c0.9-1.1,1.6-2.3,2-3.6C372.7,409.3,372.9,408,372.9,406.7L372.9,406.7z"/>
		<path id="path4848" inkscape:connector-curvature="0" class="st1" d="M386.2,396.9l-2,3.6l-29.8-16.7l2-3.6L386.2,396.9z"/>
	</g>
	<g id="text4853" transform="rotate(35.816337)">
		<path id="path4528" class="st1" d="M504.8,193.5h-12.9v-3.3l4.3,0v-26h-4.3v-3.3h12.9v3.3h-4.3v26h4.3V193.5z"/>
	</g>
	<g id="text4862" transform="rotate(28.194098,66.83979,36.962917)">
		<path id="path4515" class="st1" d="M244.1,102.2c1.9-1.1,4.1-1.9,6.5-2.2c2.5-0.3,5.2-0.2,8.1,0.4c2.9,0.6,5.5,1.5,7.7,2.8
			c2.2,1.2,3.9,2.7,5.1,4.5c1.3,1.8,2.2,3.8,2.6,5.9c0.4,2.2,0.4,4.5-0.1,7.1c-0.5,2.5-0.9,4.5-2.2,6.4c-1.2,1.9-2.8,3.4-4.7,4.5
			c-1.9,1.1-4,1.8-6.5,2.2c-2.5,0.3-5.6,0.4-8.6-0.2c-2.9-0.6-5.4-1.5-7.6-2.7c-2.2-1.2-3.9-2.7-5.3-4.5c-1.3-1.7-2.1-3.7-2.6-5.9
			c-0.4-2.3-0.4-4.6,0.1-7.1c0.5-2.6,1.4-4.8,2.6-6.6C240.7,104.8,242.2,103.3,244.1,102.2L244.1,102.2z M257.7,105.4
			c-4.6-0.9-8.4-0.6-11.3,1c-2.9,1.6-4.8,4.2-5.5,7.8c-0.7,3.6,0,6.7,2.1,9.3c2.1,2.6,5.5,4.3,10.1,5.2c4.7,0.9,8.5,0.6,11.4-1
			c2.9-1.6,4.7-4.2,5.4-7.7c0.7-3.5,0-6.6-2-9.2C265.8,108.1,262.4,106.3,257.7,105.4L257.7,105.4z"/>
		<path id="path4517" class="st1" d="M276.1,75.3c1.8,1.3,3.2,2.8,4.3,4.4c1.1,1.6,1.8,3.2,2.2,4.9c0.3,1.6,0.3,3.2,0,4.7
			c-0.3,1.6-1,3-1.9,4.3c-0.8,1.1-1.7,2.1-2.7,2.8c-0.9,0.7-2,1.4-3.2,2l9.2,6.8l-2.7,3.7l-30.1-22.1l2.7-3.7l2.3,1.7
			c-0.1-1.6,0-3.2,0.4-4.8c0.3-1.6,1-3.2,2-4.6c1.9-2.7,4.5-4,7.5-4C269.2,71.4,272.5,72.7,276.1,75.3L276.1,75.3z M273.4,79.2
			c-2.7-1.9-5-2.9-6.9-3c-2-0.1-3.7,0.9-5,2.7c-0.8,1.1-1.3,2.3-1.7,3.7c-0.3,1.4-0.5,2.9-0.5,4.4l12.5,9.1c1.2-0.7,2.2-1.4,2.9-2
			c0.7-0.6,1.4-1.4,2.1-2.4c1.5-2.1,2-4.2,1.4-6.4C277.8,83.3,276.1,81.2,273.4,79.2L273.4,79.2z"/>
		<path id="path4519" class="st1" d="M304.8,71c-0.6,0.7-1.2,1.4-2,2.1c-0.7,0.7-1.4,1.3-2.1,1.7c-2.3,1.6-4.4,2.2-6.5,1.8
			c-2-0.4-4-1.9-5.9-4.6L280,60.1l-2.5,1.8l-2.2-3.2l2.5-1.8l-4.5-6.4l3.8-2.6l4.5,6.4l7.7-5.5l2.2,3.2l-7.7,5.5l7.2,10.2
			c0.8,1.2,1.5,2.1,2,2.7c0.5,0.6,1.1,1.1,1.9,1.4c0.7,0.3,1.3,0.4,2,0.3c0.7-0.1,1.6-0.6,2.6-1.3c0.6-0.4,1.2-1,1.7-1.6
			c0.5-0.7,0.9-1.1,1.1-1.5l0.2-0.1L304.8,71z"/>
		<path id="path4521" class="st1" d="M302.5,37.8l-4.8,2l-1.8-4.4l4.8-2L302.5,37.8z M314.5,67.3l-4.2,1.8l-10.5-25.2l4.2-1.8
			L314.5,67.3z"/>
		<path id="path4523" class="st1" d="M342.7,59.8c-1.4,0.9-2.8,1.7-4.1,2.3c-1.3,0.6-2.7,1-4.3,1.2c-2,0.3-3.8,0.2-5.5-0.1
			c-1.7-0.4-3.2-1.1-4.5-2.1c-1.3-1-2.4-2.4-3.3-4c-0.9-1.7-1.5-3.7-1.8-6.1c-0.6-4.4,0.2-8.1,2.3-10.9c2.1-2.8,5.1-4.5,9.1-5
			c1.5-0.2,3.1-0.2,4.6,0.1c1.6,0.2,3,0.6,4.3,1.1l0.7,5.1l-0.2,0c-1.5-0.9-3.1-1.5-4.6-1.9c-1.5-0.4-3-0.5-4.4-0.3
			c-2.6,0.3-4.5,1.5-5.8,3.4c-1.3,1.9-1.7,4.6-1.2,7.9c0.4,3.3,1.5,5.7,3.2,7.2c1.7,1.5,3.9,2.1,6.5,1.8c0.9-0.1,1.8-0.4,2.8-0.7
			c0.9-0.4,1.7-0.8,2.4-1.3c0.6-0.4,1.2-0.9,1.7-1.3c0.5-0.5,0.9-0.9,1.2-1.2l0.2,0L342.7,59.8z"/>
		<path id="path4525" class="st1" d="M369.6,67.1l-4.4-1.1l0.7-2.8c-0.5,0.2-1.1,0.4-1.9,0.7c-0.8,0.3-1.5,0.5-2.2,0.7
			c-0.8,0.2-1.8,0.3-2.8,0.3c-1,0-2.2-0.1-3.5-0.5c-2.4-0.6-4.2-1.9-5.5-3.9c-1.3-2-1.6-4.2-1-6.7c0.5-2,1.3-3.5,2.5-4.5
			c1.2-1,2.7-1.7,4.4-2c1.8-0.3,3.8-0.3,6.2,0c2.3,0.3,4.8,0.7,7.4,1.2l0.2-0.7c0.2-1,0.3-1.9,0.1-2.6c-0.2-0.7-0.6-1.4-1.1-1.9
			c-0.5-0.5-1.2-1-2.1-1.3c-0.9-0.3-1.8-0.6-2.7-0.9c-1.2-0.3-2.5-0.5-4-0.5c-1.5-0.1-3.1,0-4.8,0.2l-0.2-0.1l1.1-4.5
			c0.9,0,2.2,0,4,0.1c1.7,0.1,3.4,0.4,5,0.8c1.9,0.5,3.4,1,4.7,1.7c1.3,0.6,2.4,1.5,3.2,2.5c0.8,1,1.3,2.1,1.6,3.4
			c0.2,1.3,0.1,2.8-0.3,4.5L369.6,67.1z M366.8,59.5l1.8-7.4c-1.4-0.3-3-0.5-4.9-0.8c-1.9-0.3-3.4-0.4-4.5-0.4
			c-1.4,0-2.5,0.4-3.5,0.9c-1,0.6-1.6,1.5-2,2.9c-0.4,1.5-0.2,2.8,0.5,3.8c0.7,1,2,1.7,3.9,2.2c1.6,0.4,3.1,0.4,4.5,0.2
			C364.1,60.6,365.5,60.1,366.8,59.5L366.8,59.5z"/>
	</g>
	<path id="path4858-3" inkscape:connector-curvature="0" class="st2" d="M272.6,415.3c0.1,1.9,0.1,3.9,0,5.8c-0.2,6-1,11.9-2.4,17.7
		c-9,35.3-39.9,60-75.6,60.3l0,0c-7.2,0.1-14.4-0.9-21.3-2.8c-33.1-9.1-56.9-38.8-59.3-73.7c0-1.7-0.1-3.4-0.2-5"/>
	<path id="path4902" inkscape:connector-curvature="0" class="st3" d="M271.2,416.2l16.4-0.1"/>
	<g id="flowRoot4583">
	</g>
</g>
<text transform="matrix(1 0 0 1 203.645 251.7214)" class="st4 st5">Optica</text>
<g>
	<g>
		<g>
			<defs>
				<path id="SVGID_1_" d="M146.6,377.2c5.6,11.7,1.6,21.4-7,25.7c-8.9,4.5-18.4,0.7-23.4-9.6c-5.2-10.8-2-21.1,7-25.7
					C132.4,363.1,141.7,367.2,146.6,377.2z M120.9,390.9c3.5,7.2,10.5,11.8,17.3,8.3c6.9-3.5,7.7-11.8,3.9-19.5
					c-3.2-6.7-10.1-12-17.3-8.4C117.6,375,117.3,383.5,120.9,390.9z"/>
			</defs>
			
				<linearGradient id="SVGID_2_" gradientUnits="userSpaceOnUse" x1="113.8412" y1="384.1023" x2="149.1573" y2="384.1023" gradientTransform="matrix(0.9998 -2.081442e-02 2.081442e-02 0.9998 -7.9676 4.0212)">
				<stop  offset="0" style="stop-color:#5AFF15"/>
				<stop  offset="0.4888" style="stop-color:#00B712"/>
				<stop  offset="0.9972" style="stop-color:#3BB78F"/>
			</linearGradient>
			<use xlink:href="#SVGID_1_"  style="overflow:visible;fill:url(#SVGID_2_);"/>
			<clipPath id="SVGID_3_">
				<use xlink:href="#SVGID_1_"  style="overflow:visible;"/>
			</clipPath>
			
				<linearGradient id="SVGID_4_" gradientUnits="userSpaceOnUse" x1="117.3126" y1="384.0135" x2="145.7878" y2="384.0135" gradientTransform="matrix(0.9998 -2.081442e-02 2.081442e-02 0.9998 -7.9676 4.0212)">
				<stop  offset="0" style="stop-color:#5AFF15"/>
				<stop  offset="0.4888" style="stop-color:#00B712"/>
				<stop  offset="0.9972" style="stop-color:#3BB78F"/>
			</linearGradient>
			<polygon class="st6" points="116.9,368 145.4,367.5 146.1,402.4 117.7,403 			"/>
			
				<linearGradient id="SVGID_5_" gradientUnits="userSpaceOnUse" x1="111.1553" y1="384.0497" x2="152.1503" y2="384.0497" gradientTransform="matrix(0.9998 -2.081442e-02 2.081442e-02 0.9998 -7.9676 4.0212)">
				<stop  offset="0" style="stop-color:#5AFF15"/>
				<stop  offset="0.4888" style="stop-color:#00B712"/>
				<stop  offset="0.9972" style="stop-color:#3BB78F"/>
			</linearGradient>
			<polygon class="st7" points="110.7,363.5 151.7,362.7 152.6,407 111.6,407.8 			"/>
			<use xlink:href="#SVGID_1_"  style="overflow:visible;fill:none;stroke:#000000;stroke-width:0.5;stroke-miterlimit:10;"/>
		</g>
	</g>
	<g>
		<g>
			<defs>
				<path id="SVGID_6_" d="M155.7,376.7c-0.6-3.4-1.1-6.2-1.7-8.7l4.3-0.7l1,4.5l0.1,0c1.4-3.6,4.2-6.1,8.5-6.8
					c6.4-1.1,12.1,3.5,13.5,11.6c1.6,9.6-3.4,15.4-9.6,16.4c-3.5,0.6-6.8-0.4-8.8-2.8l-0.1,0l2.4,14.5l-4.8,0.8L155.7,376.7z
					 M161.6,383c0.1,0.7,0.3,1.4,0.5,2c1.4,3.2,4.7,5,8.2,4.4c5.1-0.9,7.3-5.6,6.3-11.7c-0.9-5.4-4.4-9.5-9.5-8.6
					c-3.3,0.6-5.9,3.5-6.3,7.3c-0.1,0.6-0.1,1.4,0,2L161.6,383z"/>
			</defs>
			
				<linearGradient id="SVGID_7_" gradientUnits="userSpaceOnUse" x1="154.3882" y1="384.7181" x2="181.8513" y2="384.7181" gradientTransform="matrix(0.9998 -2.081442e-02 2.081442e-02 0.9998 -7.9676 4.0212)">
				<stop  offset="0" style="stop-color:#5AFF15"/>
				<stop  offset="0.4888" style="stop-color:#00B712"/>
				<stop  offset="0.9972" style="stop-color:#3BB78F"/>
			</linearGradient>
			<use xlink:href="#SVGID_6_"  style="overflow:visible;fill:url(#SVGID_7_);"/>
			<clipPath id="SVGID_8_">
				<use xlink:href="#SVGID_6_"  style="overflow:visible;"/>
			</clipPath>
			
				<linearGradient id="SVGID_9_" gradientUnits="userSpaceOnUse" x1="160.9199" y1="378.6854" x2="177.7142" y2="378.6854" gradientTransform="matrix(0.9998 -2.081442e-02 2.081442e-02 0.9998 -7.9676 4.0212)">
				<stop  offset="0" style="stop-color:#5AFF15"/>
				<stop  offset="0.4888" style="stop-color:#00B712"/>
				<stop  offset="0.9972" style="stop-color:#3BB78F"/>
			</linearGradient>
			<polygon class="st8" points="160.6,368.4 177.4,368.1 177.8,389.8 161,390.1 			"/>
			
				<linearGradient id="SVGID_10_" gradientUnits="userSpaceOnUse" x1="154.3882" y1="384.2936" x2="183.0147" y2="384.2936" gradientTransform="matrix(0.9998 -2.081442e-02 2.081442e-02 0.9998 -7.9676 4.0212)">
				<stop  offset="0" style="stop-color:#5AFF15"/>
				<stop  offset="0.4888" style="stop-color:#00B712"/>
				<stop  offset="0.9972" style="stop-color:#3BB78F"/>
			</linearGradient>
			<polygon class="st9" points="154,364.3 182.6,363.7 183.4,405.2 154.8,405.8 			"/>
			<use xlink:href="#SVGID_6_"  style="overflow:visible;fill:none;stroke:#000000;stroke-width:0.5;stroke-miterlimit:10;"/>
		</g>
	</g>
	<g>
		<g>
			<defs>
				<path id="SVGID_11_" d="M195.2,356.6l-0.3,7.8l7,0.3l-0.1,3.8l-7-0.3l-0.6,14.6c-0.1,3.4,0.7,5.3,3.5,5.4
					c1.3,0.1,2.2-0.1,2.8-0.2l0.1,3.7c-1,0.4-2.5,0.6-4.3,0.5c-2.3-0.1-4.1-0.9-5.2-2.3c-1.3-1.5-1.7-3.9-1.6-7.1l0.6-14.8l-4.2-0.2
					l0.1-3.8l4.2,0.2l0.2-6.5L195.2,356.6z"/>
			</defs>
			
				<linearGradient id="SVGID_12_" gradientUnits="userSpaceOnUse" x1="186.1735" y1="374.4821" x2="202.2855" y2="374.4821" gradientTransform="matrix(0.9998 -2.081442e-02 2.081442e-02 0.9998 -7.9676 4.0212)">
				<stop  offset="0" style="stop-color:#5AFF15"/>
				<stop  offset="0.4888" style="stop-color:#00B712"/>
				<stop  offset="0.9972" style="stop-color:#3BB78F"/>
			</linearGradient>
			<use xlink:href="#SVGID_11_"  style="overflow:visible;fill:url(#SVGID_12_);"/>
			<clipPath id="SVGID_13_">
				<use xlink:href="#SVGID_11_"  style="overflow:visible;"/>
			</clipPath>
			
				<linearGradient id="SVGID_14_" gradientUnits="userSpaceOnUse" x1="186.1735" y1="374.523" x2="202.2855" y2="374.523" gradientTransform="matrix(0.9998 -2.081442e-02 2.081442e-02 0.9998 -7.9676 4.0212)">
				<stop  offset="0" style="stop-color:#5AFF15"/>
				<stop  offset="0.4888" style="stop-color:#00B712"/>
				<stop  offset="0.9972" style="stop-color:#3BB78F"/>
			</linearGradient>
			<polygon class="st10" points="185.6,356.8 201.7,356.4 202.4,392.1 186.3,392.4 			"/>
			<use xlink:href="#SVGID_11_"  style="overflow:visible;fill:none;stroke:#000000;stroke-width:0.5;stroke-miterlimit:10;"/>
		</g>
	</g>
	<g>
		<g>
			<defs>
				<path id="SVGID_15_" d="M205,392.5l4.4-26.7l4.8,0.8l-4.5,26.7L205,392.5z M216.1,359.2c-0.2,1.7-1.6,2.8-3.6,2.4
					c-1.7-0.3-2.7-1.8-2.4-3.5c0.3-1.7,1.8-2.8,3.5-2.5C215.4,356,216.3,357.5,216.1,359.2z"/>
			</defs>
			
				<linearGradient id="SVGID_16_" gradientUnits="userSpaceOnUse" x1="204.8351" y1="374.9675" x2="216.6481" y2="374.9675" gradientTransform="matrix(0.9998 -2.081442e-02 2.081442e-02 0.9998 -7.9676 4.0212)">
				<stop  offset="0" style="stop-color:#5AFF15"/>
				<stop  offset="0.4888" style="stop-color:#00B712"/>
				<stop  offset="0.9972" style="stop-color:#3BB78F"/>
			</linearGradient>
			<use xlink:href="#SVGID_15_"  style="overflow:visible;fill:url(#SVGID_16_);"/>
			<clipPath id="SVGID_17_">
				<use xlink:href="#SVGID_15_"  style="overflow:visible;"/>
			</clipPath>
			
				<linearGradient id="SVGID_18_" gradientUnits="userSpaceOnUse" x1="210.337" y1="359.2001" x2="216.9046" y2="359.2001" gradientTransform="matrix(0.9998 -2.081442e-02 2.081442e-02 0.9998 -7.9676 4.0212)">
				<stop  offset="0" style="stop-color:#5AFF15"/>
				<stop  offset="0.4888" style="stop-color:#00B712"/>
				<stop  offset="0.9972" style="stop-color:#3BB78F"/>
			</linearGradient>
			<polygon class="st11" points="209.7,355.4 216.3,355.3 216.4,362 209.9,362.1 			"/>
			
				<linearGradient id="SVGID_19_" gradientUnits="userSpaceOnUse" x1="204.8351" y1="380.017" x2="214.6333" y2="380.017" gradientTransform="matrix(0.9998 -2.081442e-02 2.081442e-02 0.9998 -7.9676 4.0212)">
				<stop  offset="0" style="stop-color:#5AFF15"/>
				<stop  offset="0.4888" style="stop-color:#00B712"/>
				<stop  offset="0.9972" style="stop-color:#3BB78F"/>
			</linearGradient>
			<polygon class="st12" points="204.4,365.9 214.2,365.7 214.8,393.3 205,393.5 			"/>
			<use xlink:href="#SVGID_15_"  style="overflow:visible;fill:none;stroke:#000000;stroke-width:0.5;stroke-miterlimit:10;"/>
		</g>
	</g>
	<g>
		<g>
			<defs>
				<path id="SVGID_20_" d="M234.9,399.2c-1.4,0.2-4.4,0.1-7.8-1c-7.7-2.7-10.9-9.6-8.3-17.5c2.6-7.9,9.9-11.8,18.2-8.9
					c2.7,0.9,4.9,2.5,6,3.5l-2.2,3.2c-0.9-1-2.4-2.2-5-3.1c-5.8-2-10.4,1.2-12.2,6.6c-2,5.9,0.6,10.9,5.7,12.7
					c2.6,0.9,4.6,0.8,6.1,0.7L234.9,399.2z"/>
			</defs>
			
				<linearGradient id="SVGID_21_" gradientUnits="userSpaceOnUse" x1="217.9044" y1="385.9177" x2="243.1316" y2="385.9177" gradientTransform="matrix(0.9998 -2.081442e-02 2.081442e-02 0.9998 -7.9676 4.0212)">
				<stop  offset="0" style="stop-color:#5AFF15"/>
				<stop  offset="0.4888" style="stop-color:#00B712"/>
				<stop  offset="0.9972" style="stop-color:#3BB78F"/>
			</linearGradient>
			<use xlink:href="#SVGID_20_"  style="overflow:visible;fill:url(#SVGID_21_);"/>
			<clipPath id="SVGID_22_">
				<use xlink:href="#SVGID_20_"  style="overflow:visible;"/>
			</clipPath>
			
				<linearGradient id="SVGID_23_" gradientUnits="userSpaceOnUse" x1="216.139" y1="384.9847" x2="243.1316" y2="384.9847" gradientTransform="matrix(0.9998 -2.081442e-02 2.081442e-02 0.9998 -7.9676 4.0212)">
				<stop  offset="0" style="stop-color:#5AFF15"/>
				<stop  offset="0.4888" style="stop-color:#00B712"/>
				<stop  offset="0.9972" style="stop-color:#3BB78F"/>
			</linearGradient>
			<polygon class="st13" points="215.8,369.1 242.8,368.5 243.4,399.2 216.5,399.7 			"/>
			<use xlink:href="#SVGID_20_"  style="overflow:visible;fill:none;stroke:#000000;stroke-width:0.5;stroke-miterlimit:10;"/>
		</g>
	</g>
	<g>
		<g>
			<defs>
				<path id="SVGID_24_" d="M250.8,409.7l1.4-3.1l-0.1-0.1c-2.4,1-5.8,1.2-9.1-0.8c-4.7-2.8-5.1-7.6-3.2-11c3.3-5.6,10-5.7,18.9-0.2
					l0.3-0.5c1.1-1.9,2.6-5.7-2.1-8.6c-2.1-1.3-4.8-2-7-1.9l0.7-3.4c2.6-0.1,5.9,0.8,8.8,2.6c7.1,4.3,6,10.2,3.2,14.9l-5.1,8.7
					c-1.2,2-2.2,4.1-2.9,5.8L250.8,409.7z M257.1,397.4c-4.5-2.9-10.2-5.2-12.8-0.7c-1.6,2.7-0.5,5.1,1.6,6.5c3,1.8,6,1.1,7.8-0.5
					c0.4-0.3,0.8-0.8,1-1.2L257.1,397.4z"/>
			</defs>
			
				<linearGradient id="SVGID_25_" gradientUnits="userSpaceOnUse" x1="238.4379" y1="397.3714" x2="264.531" y2="397.3714" gradientTransform="matrix(0.9998 -2.081442e-02 2.081442e-02 0.9998 -7.9676 4.0212)">
				<stop  offset="0" style="stop-color:#5AFF15"/>
				<stop  offset="0.4888" style="stop-color:#00B712"/>
				<stop  offset="0.9972" style="stop-color:#3BB78F"/>
			</linearGradient>
			<use xlink:href="#SVGID_24_"  style="overflow:visible;fill:url(#SVGID_25_);"/>
			<clipPath id="SVGID_26_">
				<use xlink:href="#SVGID_24_"  style="overflow:visible;"/>
			</clipPath>
			
				<linearGradient id="SVGID_27_" gradientUnits="userSpaceOnUse" x1="242.3954" y1="399.8299" x2="256.8517" y2="399.8299" gradientTransform="matrix(0.9998 -2.081442e-02 2.081442e-02 0.9998 -7.9676 4.0212)">
				<stop  offset="0" style="stop-color:#5AFF15"/>
				<stop  offset="0.4888" style="stop-color:#00B712"/>
				<stop  offset="0.9972" style="stop-color:#3BB78F"/>
			</linearGradient>
			<polygon class="st14" points="242.6,392.3 257,392 257.3,404.8 242.8,405.1 			"/>
			
				<linearGradient id="SVGID_28_" gradientUnits="userSpaceOnUse" x1="237.5874" y1="397.3551" x2="266.3396" y2="397.3551" gradientTransform="matrix(0.9998 -2.081442e-02 2.081442e-02 0.9998 -7.9676 4.0212)">
				<stop  offset="0" style="stop-color:#5AFF15"/>
				<stop  offset="0.4888" style="stop-color:#00B712"/>
				<stop  offset="0.9972" style="stop-color:#3BB78F"/>
			</linearGradient>
			<polygon class="st15" points="237.5,380.3 266.3,379.7 266.9,411.8 238.2,412.4 			"/>
			<use xlink:href="#SVGID_24_"  style="overflow:visible;fill:none;stroke:#000000;stroke-width:0.5;stroke-miterlimit:10;"/>
		</g>
	</g>
</g>
<image style="overflow:visible;" width="940" height="356" xlink:href="F05573E7.jpg"  transform="matrix(0.1897 0 0 0.2385 378.8144 34.1515)">
</image>
<text transform="matrix(1 0 0 1 121.1511 310.6614)" class="st16 st17">Optica</text>
</svg>
